name rise30.9205peak61.366fall85.3838.mot
datacolumns 19
datarows 26
range 17.25661500000000 17.29827300000000
endheader
time	ground_force1_vx	ground_force1_vy	ground_force1_vz	ground_force1_px	ground_force1_py	ground_force1_pz	ground_force2_vx	ground_force2_vy	ground_force2_vz	ground_force2_px	ground_force2_py	ground_force2_pz	ground_torque1_x	ground_torque1_y	ground_torque1_z	ground_torque2_x	ground_torque2_y	ground_torque2_z	
17.25661500000000	-9.25412500000000	41.41410800000000	-9.77374500000000	0.33003500000000	0.00000000000000	0.10145500000000	-46.52162300000000	764.33357000000001	-57.17989900000000	0.13930700000000	0.00000000000000	-0.09238700000000	0.00000000000000	-6.13996400000000	0.00000000000000	0.00000000000000	-22.00054500000000	0.00000000000000	
17.25826600000000	-10.18739900000000	48.47325600000000	-10.94964200000000	0.33502000000000	0.00000000000000	0.10239200000000	-47.08758100000000	761.59710900000005	-56.79937900000000	0.13853200000000	0.00000000000000	-0.09228700000000	0.00000000000000	-6.95742500000000	0.00000000000000	0.00000000000000	-21.91968000000000	0.00000000000000	
17.25993300000000	-10.95638000000000	55.60646100000000	-12.00389800000000	0.33962400000000	0.00000000000000	0.10323800000000	-47.66590100000000	758.79896099999996	-56.40329600000000	0.13776600000000	0.00000000000000	-0.09218400000000	0.00000000000000	-7.71392500000000	0.00000000000000	0.00000000000000	-21.84042000000000	0.00000000000000	
17.26161400000000	-11.53615700000000	62.72167500000000	-12.91080100000000	0.34389500000000	0.00000000000000	0.10400900000000	-48.25650100000000	755.93795999999998	-55.99174700000000	0.13700900000000	0.00000000000000	-0.09207700000000	0.00000000000000	-8.39165700000000	0.00000000000000	0.00000000000000	-21.76283000000000	0.00000000000000	
17.26326500000000	-11.91180300000000	69.75014500000000	-13.65369600000000	0.34787300000000	0.00000000000000	0.10471400000000	-48.85924100000000	753.01275499999997	-55.56483700000000	0.13626100000000	0.00000000000000	-0.09196600000000	0.00000000000000	-8.97828600000000	0.00000000000000	0.00000000000000	-21.68696000000000	0.00000000000000	
17.26493800000000	-12.07825900000000	76.64846900000001	-14.22504600000000	0.35159300000000	0.00000000000000	0.10536400000000	-49.47392200000000	750.02180699999997	-55.12267600000000	0.13552300000000	0.00000000000000	-0.09185200000000	0.00000000000000	-9.46714800000000	0.00000000000000	0.00000000000000	-21.61284500000000	0.00000000000000	
17.26661400000000	-12.03942600000000	83.39822400000000	-14.62574300000000	0.35508000000000	0.00000000000000	0.10596600000000	-50.10027900000000	746.96339899999998	-54.66538300000000	0.13479400000000	0.00000000000000	-0.09173400000000	0.00000000000000	-9.85696500000000	0.00000000000000	0.00000000000000	-21.54050500000000	0.00000000000000	
17.26826700000000	-11.80668500000000	90.00360000000001	-14.86383900000000	0.35835900000000	0.00000000000000	0.10652500000000	-50.73798400000000	743.83563300000003	-54.19308200000000	0.13407600000000	0.00000000000000	-0.09161200000000	0.00000000000000	-10.15115800000000	0.00000000000000	0.00000000000000	-21.46994300000000	0.00000000000000	
17.26993400000000	-11.39705600000000	96.48756600000000	-14.95291600000000	0.36144900000000	0.00000000000000	0.10704700000000	-51.38664200000000	740.63643700000000	-53.70590700000000	0.13336700000000	0.00000000000000	-0.09148700000000	0.00000000000000	-10.35688500000000	0.00000000000000	0.00000000000000	-21.40114800000000	0.00000000000000	
17.27160200000000	-10.83121300000000	102.88715800000000	-14.91028100000000	0.36436700000000	0.00000000000000	0.10753700000000	-52.04578500000000	737.36356799999999	-53.20399700000000	0.13266900000000	0.00000000000000	-0.09135800000000	0.00000000000000	-10.48394500000000	0.00000000000000	0.00000000000000	-21.33409100000000	0.00000000000000	
17.27326700000000	-10.13155000000000	109.24842800000000	-14.75516800000000	0.36712700000000	0.00000000000000	0.10799700000000	-52.71487700000000	734.01462200000003	-52.68750300000000	0.13198200000000	0.00000000000000	-0.09122600000000	0.00000000000000	-10.54363900000000	0.00000000000000	0.00000000000000	-21.26872800000000	0.00000000000000	
17.27493800000000	-9.32043400000000	115.62150900000000	-14.50710000000000	0.36974200000000	0.00000000000000	0.10843200000000	-53.39330800000000	730.58703800000001	-52.15658300000000	0.13130600000000	0.00000000000000	-0.09109000000000	0.00000000000000	-10.54771400000000	0.00000000000000	0.00000000000000	-21.20499500000000	0.00000000000000	
17.27661900000000	-8.41876200000000	122.05619200000000	-14.18450000000000	0.37222200000000	0.00000000000000	0.10884300000000	-54.08039400000000	727.07810400000005	-51.61140500000000	0.13064000000000	0.00000000000000	-0.09095000000000	0.00000000000000	-10.50744600000000	0.00000000000000	0.00000000000000	-21.14281600000000	0.00000000000000	
17.27827300000000	-7.44488200000000	128.59825799999999	-13.80363200000000	0.37457800000000	0.00000000000000	0.10923300000000	-54.77537400000000	723.48497299999997	-51.05214800000000	0.12998600000000	0.00000000000000	-0.09080800000000	0.00000000000000	-10.43290900000000	0.00000000000000	0.00000000000000	-21.08209400000000	0.00000000000000	
17.27993800000000	-6.41388800000000	135.28672000000000	-13.37788500000000	0.37681700000000	0.00000000000000	0.10960500000000	-55.47741200000000	719.80466699999999	-50.47900000000000	0.12934200000000	0.00000000000000	-0.09066200000000	0.00000000000000	-10.33247700000000	0.00000000000000	0.00000000000000	-21.02271700000000	0.00000000000000	
17.28160900000000	-5.33729400000000	142.15202700000000	-12.91740200000000	0.37894700000000	0.00000000000000	0.10995800000000	-56.18559400000000	716.03408999999999	-49.89216500000000	0.12871000000000	0.00000000000000	-0.09051200000000	0.00000000000000	-10.21252400000000	0.00000000000000	0.00000000000000	-20.96455500000000	0.00000000000000	
17.28327300000000	-4.22302400000000	149.21519000000001	-12.42901600000000	0.38097400000000	0.00000000000000	0.11029600000000	-56.89892900000000	712.17004199999997	-49.29185400000000	0.12808900000000	0.00000000000000	-0.09036000000000	0.00000000000000	-10.07734600000000	0.00000000000000	0.00000000000000	-20.90746200000000	0.00000000000000	
17.28494800000000	-3.07568000000000	156.48773199999999	-11.91644300000000	0.38290500000000	0.00000000000000	0.11062000000000	-57.61634700000000	708.20922800000005	-48.67829400000000	0.12748000000000	0.00000000000000	-0.09020400000000	0.00000000000000	-9.92924200000000	0.00000000000000	0.00000000000000	-20.85127400000000	0.00000000000000	
17.28661100000000	-1.89700800000000	163.97230999999999	-11.38067500000000	0.38474400000000	0.00000000000000	0.11093000000000	-58.33670100000000	704.14827500000001	-48.05172600000000	0.12688200000000	0.00000000000000	-0.09004500000000	0.00000000000000	-9.76873600000000	0.00000000000000	0.00000000000000	-20.79581400000000	0.00000000000000	
17.28827100000000	-0.68648600000000	171.66384300000001	-10.82050300000000	0.38649600000000	0.00000000000000	0.11122700000000	-59.05876800000000	699.98374699999999	-47.41240400000000	0.12629600000000	0.00000000000000	-0.08988300000000	0.00000000000000	-9.59489800000000	0.00000000000000	0.00000000000000	-20.74088400000000	0.00000000000000	
17.28993700000000	0.55802100000000	179.55097000000001	-10.23310500000000	0.38816500000000	0.00000000000000	0.11151300000000	-59.78124800000000	695.71216100000004	-46.76059800000000	0.12572100000000	0.00000000000000	-0.08971800000000	0.00000000000000	-9.40570600000000	0.00000000000000	0.00000000000000	-20.68627300000000	0.00000000000000	
17.29161600000000	1.83960400000000	187.61765600000001	-9.61464800000000	0.38975500000000	0.00000000000000	0.11178800000000	-60.50276800000000	691.33000400000003	-46.09659100000000	0.12515900000000	0.00000000000000	-0.08955000000000	0.00000000000000	-9.19843900000000	0.00000000000000	0.00000000000000	-20.63175600000000	0.00000000000000	
17.29327100000000	3.16171100000000	195.84482199999999	-8.96085800000000	0.39127000000000	0.00000000000000	0.11205300000000	-61.22187900000000	686.83375100000001	-45.42068700000000	0.12460700000000	0.00000000000000	-0.08937900000000	0.00000000000000	-8.97004000000000	0.00000000000000	0.00000000000000	-20.57709100000000	0.00000000000000	
17.29493800000000	4.52762200000000	204.21185000000000	-8.26751400000000	0.39271200000000	0.00000000000000	0.11230800000000	-61.93706500000000	682.21988699999997	-44.73320100000000	0.12406800000000	0.00000000000000	-0.08920600000000	0.00000000000000	-8.71744700000000	0.00000000000000	0.00000000000000	-20.52202300000000	0.00000000000000	
17.29660500000000	5.94003500000000	212.69789900000001	-7.53084900000000	0.39408400000000	0.00000000000000	0.11255400000000	-62.64674000000000	677.48492499999998	-44.03447000000000	0.12354000000000	0.00000000000000	-0.08902900000000	0.00000000000000	-8.43786800000000	0.00000000000000	0.00000000000000	-20.46628300000000	0.00000000000000	
17.29827300000000	7.40077000000000	221.28295600000001	-6.74785300000000	0.39538800000000	0.00000000000000	0.11279200000000	-63.34925600000000	672.62543100000005	-43.32484600000000	0.12302400000000	0.00000000000000	-0.08885000000000	0.00000000000000	-8.12897900000000	0.00000000000000	0.00000000000000	-20.40958900000000	0.00000000000000	
